<?xml version="1.0" encoding="UTF-8"?>
<svg id="Capa_1" xmlns="http://www.w3.org/2000/svg" version="1.1" viewBox="0 0 543.5 426">
  <!-- Generator: Adobe Illustrator 29.8.3, SVG Export Plug-In . SVG Version: 2.1.1 Build 3)  -->
  <defs>
    <style>
      .st0 {
        fill: #111b21;
      }

      .st1 {
        fill: #151f24;
      }

      .st2 {
        fill: #e5fed9;
      }

      .st3 {
        fill: #fbf4ea;
      }

      .st4 {
        fill: #121c21;
      }

      .st5 {
        fill: #fefefe;
      }

      .st6 {
        fill: #25d266;
      }

      .st7 {
        fill: #25d165;
      }

      .st8 {
        fill: #121c22;
      }
    </style>
  </defs>
  <path class="st0" d="M116.09,106.2c1.03-6.54,8.21-14.2,14.93-14.93,5.59-.61,17.36,1.2,21.82-.08.55-.16,1.69-1.36,2.59-1.79,8.44-4.07,17.68-6.69,25.97-11.06-7.1-.22-14.18.1-21.32.18-1.93.02-3.74.63-5.95.41-4.27-.43-6.22-2.71-7.26-6.67-.97-3.7-3.86-18.16-3.72-21.39.16-3.6,2.89-6.9,6.6-6.99,21.55,6.33,43.79,11.41,65.11,18.55,3.8,1.27,7.05,1.81,8.09,6.24.56,2.4.35,4.27-1.15,6.27-3.35,4.49-11.64,9.11-15.71,13.36l-2.78,2.99,80.98-.05.59-.6,11.94-34.24c5.36-8.91,12.06-5.24,19.64-2.39,11.18,4.22,22.16,9.07,33.37,13.22l9.62,22.63,1.01,1.38,44.04.16c5.4.79,11.44,7.43,11.44,12.84v130.78c.88.06,1.68.35,2.57.42,10.22.75,21.64-.4,31.89.37,10.24.76,16.67,9.02,13.9,19.11-10.97,28.26-25.29,55.85-36.2,84.03-1.47,3.8-1.34,7.42-2.93,11-2.22,5-6.83,9.4-12.32,10.37-77.13,1.18-154.45.18-231.65.5-7.31-.28-13.38-4.6-16.08-11.39-.55-1.39-2.56-9.3-.25-9.3h74.07l17.72-41h-68.89c6,6.93,11.62,14.13,5.51,23.22-14.12,21.02-50.06.53-63.83-11.69-19.89-17.64-48.83-57.03-40.71-84.87,2.61-8.95,12.98-23.85,23.35-16,1.37,1.03,2.36,2.92,4.02,3.35v-106.89Z"/>
  <path class="st5" d="M78.08,179.03c6.84,7.07,14.72,5.87,23.47,3.41,4.64,2.7-3.32,4.37-5.6,4.74-24.73,4.04-30.69-21.5-28.39-40.72,3.88-32.35,28.94-60.4,61.59-65.02,1.6-.23,5.51-1.39,5.28,1.26-.18,2.12-6.35,1.93-8.09,2.31-22.09,4.77-39.45,19.07-48.95,39.45-6.96,14.93-11.98,41.5.69,54.59Z"/>
  <path class="st3" d="M283.34,94.46l-12.96,38.2c-.98,6.32,1.49,10.97,7.39,13.35,18,6.16,35.3,14.58,53.25,20.81,10.11,3.51,13.01-1.43,16.22-9.88,6.51-17.14,11.43-34.93,18.07-52.04-.49-3.61-2.65-7.02-3.91-10.45h42.81c2.57,0,8.21,5.61,8.17,8.55v178.38c.39,5.28-7,14.52-12.16,14.52h-186.16V94.46h69.29Z"/>
  <path class="st2" d="M184.78,295.9c-3.45-3.36-9.94-13.67-14.71-14.35-7.08-1-8.85,5.56-12.57,9.76s-6.35,2.88-10.14-.2c-7.48-6.07-22.35-24.23-25.31-33.22-4.01-12.17,12.51-14.14,7.86-25.38-2.37-5.73-7.04-11.05-10.63-16.05v-108.68c.61-5.79,6.13-12.69,12.14-13.34s13.71.51,20.11,0c-.3.62-.42,1.01-.38,1.72.25,4.11,2.89,19.21,4.29,22.83,1.91,4.96,8.54,5.98,12.21,2.11l31.07-26.67h11.75v201.44h-25.68Z"/>
  <path class="st6" d="M424.31,340.09h-181.58l17.37-40.63,135.37.04c10.79.56,20.49-8.99,20.49-19.73v-41.2l33.27.38c7.73-.03,13.7,5.65,12.43,13.66l-37.34,87.48Z"/>
  <path class="st2" d="M346.65,69.39c-1.44,5.52-4.4,11.28-5.71,16.76-3.19,13.31,10.56,14.66,19.54,18.56l.9,1.06-18.91,54.76c-1.44,3.27-5.17,5.23-8.65,3.86-17.47-8.13-38.09-13.26-55.25-21.59-4.47-2.17-5.72-4.65-5.01-9.76,9.09-23.54,15.58-48.89,24.9-72.24,1.72-4.31,3.41-7.44,8.79-6.79l39.4,15.37Z"/>
  <path class="st6" d="M105.24,210.79c3.6-.53,9.05,5.25,11.45,7.87s5.06,6.11,6.89,9.03c.81,1.29,3.67,6.07,3.94,7.2,1.01,4.18-3.83,7.48-6.03,10.48-6.63,9.04-2.11,15.46,3.03,23.58,4.16,6.58,19.18,26.53,26.5,28.05,7.76,1.61,9.41-5.62,13.45-9.87,3.05-3.21,4.64-3.02,7.96-.39s17.08,18.88,18.93,22.48c4.83,9.36-4.5,17-13.05,18.42-21.41,3.55-46.98-17.81-59.82-33.15-15.41-18.41-38.18-51.68-23.18-75.71,1.81-2.9,6.43-7.49,9.93-8Z"/>
  <path class="st6" d="M219.23,343.68c.06.06-.01,1.07.19,1.59,1.66,4.22,5.07,6.47,9.55,6.79,16.2,1.17,33.81-.88,50.16-.05,4.72-.81,7.3-4.01,8.79-8.33h135.59c-.84,7.45-6.47,13.56-14.14,13.93l-227.39.03c-8.1-.09-14.19-5.95-14.91-13.95h52.17Z"/>
  <path class="st5" d="M155.65,93l30.02-12.79c2.49-1.78,1.43-5.31-1.67-5.67-4.21-.49-11.06.67-15.52.82-2.92.1-5.87-.08-8.79-.03-4.55.08-8.09,2.06-9.63-3.87-1.74-6.69-2.11-13.87-3.7-20.61.35-2.61,2.16-4.36,4.89-3.67,20.91,7.15,43.57,11.58,64.31,18.91,4.08,1.44,6.1,3.52,3.08,7.67-17.72,13.98-34.07,29.81-51.78,43.78-.8.63-2.92,2.5-3.67,2.7-2.75.73-4.4-1.02-5.09-3.47-1.81-6.37-1.91-14.08-3.73-20.56-.02-1.18.64-2.27,1.29-3.2Z"/>
  <path class="st7" d="M284.14,343.68c-.48,3.51-3.73,4.94-6.95,5.19-15.63,1.21-32.8-.94-48.6-.02-2.99-.35-5.45-2.24-6.17-5.18h61.72Z"/>
  <path class="st5" d="M360.59,101.22l-13.68-5.23c-7.27-5.98.46-15.47,1.74-22.63l11.94,27.86Z"/>
  <path class="st0" d="M367.2,193.37c15.5,15.65,9.86,38.23,10.94,58.12,1.68,4.42,5.39,8.41,7.3,12.61s.59,6.94-3.92,7.53l-85.18-.07c-28-4.37-34.55-31.16-31.26-55.83,2.24-16.78,14.54-30.7,31.61-32.89,22.8,2.56,52.75-7.41,70.51,10.52Z"/>
  <path class="st1" d="M196.43,200.85c1.58,1.56-.55,3.51-2.48,3.1-17.18-1.08-36.01,1.39-52.99,0-4.11-.34-4.2-3.28-.4-3.62,17.11-1.52,36.45,1.19,53.79,0,.62.05,1.62.07,2.07.51Z"/>
  <path class="st0" d="M138.99,182.44h56.94c1.05,0,1.05,3.18,0,3.18h-56.94c-1,0-1.46-2.7,0-3.18Z"/>
  <path class="st4" d="M132.92,118.24c-2-2,3.63-5.37,3.45-6.41-.97-1.56-4.88-3.65-3.58-5.64,1.81-2.79,4.4,2.21,5.8,3.39,1.51-.86,3.95-5.84,5.78-3.78,2.05,2.32-3.24,4.28-3.18,6.39.04,1.54,5.49,4.06,3.61,6.39s-4.66-3.42-6.21-4.21c-1.34,1.04-3.71,5.83-5.67,3.87Z"/>
  <path class="st0" d="M298.36,106.07c1.13-.33,2.68.46,3.79.83,12.5,4.16,24.91,10.43,37.43,14.73,2.09.87.76,3.79-1.31,2.92-12.22-5.76-27.42-9.24-39.28-15.29-1.62-.83-2.85-2.55-.64-3.19Z"/>
  <path class="st0" d="M292.39,123.58c.46-.12.88-.07,1.31.12l39.52,15.45c1.06.53,1.77,1.27,1.03,2.41-.93,1.43-2.92.28-4.12-.11-12.5-4.06-24.96-10.47-37.5-14.66-1.62-.47-1.82-2.77-.23-3.21Z"/>
  <path class="st8" d="M303.75,88.59c.42-.42,1.31-.56,1.88-.33,2.6,1.59,20.2,7.2,20.94,8.59.58,1.1-.62,2.87-1.91,2.32-5.96-2.89-14.16-4.6-19.81-7.7-1.15-.63-2.4-1.58-1.1-2.88Z"/>
  <path class="st5" d="M297.2,186.14c15.39-1.43,32.49.81,48.06-.11,10.5,1.02,19.18,7.2,24.57,16.04,8.45,13.85,3.87,34.63,5.13,50.21l8.25,14.69c-.35,1.61-1.86,1.75-3.28,1.87l-81.64-.02c-28.12-3.87-33.72-31.29-29.57-55.43,2.34-13.63,14.53-25.96,28.49-27.25Z"/>
</svg>